<svg xmlns="http://www.w3.org/2000/svg" width="256" height="256" viewBox="0 0 100 100"><rect width="100" height="100" rx="0" fill="#3d3b3b"></rect><path d="M48.12 33.91L42.98 33.44L42.98 31.95L55.06 31.95L55.06 33.44L50.03 33.91L41.07 68.05L39.59 68.05L30.15 37.25L20.93 68.05L19.45 68.05L9.96 33.86L5.19 33.44L5.19 31.95L18.17 31.95L18.17 33.44L12.93 33.91L20.72 62.75L29.57 33.91L24.32 33.44L24.32 31.95L37.31 31.95L37.31 33.44L31.85 33.91L40.65 63.12L48.12 33.91ZM86.38 33.86L80.98 33.44L80.98 31.95L94.81 31.95L94.81 33.44L89.41 33.86Q89.35 37.41 89.33 41.07Q89.30 44.73 89.30 48.38L89.30 48.38L89.30 51.25Q89.30 54.90 89.33 58.53Q89.35 62.16 89.41 65.77L89.41 65.77L94.81 66.19L94.81 67.68L80.98 67.68L80.98 66.19L86.38 65.77Q86.44 62.16 86.44 58.27Q86.44 54.37 86.44 49.81L86.44 49.81L66.72 49.81Q66.72 54.74 66.75 58.53Q66.77 62.32 66.83 65.77L66.83 65.77L72.23 66.19L72.23 67.68L58.40 67.68L58.40 66.19L63.81 65.77Q63.86 62.16 63.86 58.53Q63.86 54.90 63.86 51.25L63.86 51.25L63.86 48.38Q63.86 44.73 63.86 41.10Q63.86 37.47 63.81 33.86L63.81 33.86L58.40 33.44L58.40 31.95L72.23 31.95L72.23 33.44L66.83 33.86Q66.77 37.41 66.75 41.04Q66.72 44.67 66.72 48.17L66.72 48.17L86.44 48.17Q86.44 44.30 86.44 40.78Q86.44 37.25 86.38 33.86L86.38 33.86Z" fill="#f4f1ed"></path></svg>